<?xml version="1.0" encoding="utf-8"?>
<!-- Generator: Adobe Illustrator 25.0.0, SVG Export Plug-In . SVG Version: 6.00 Build 0)  -->
<svg version="1.1" id="Layer_1" xmlns="http://www.w3.org/2000/svg" xmlns:xlink="http://www.w3.org/1999/xlink" x="0px" y="0px"
	 viewBox="0 0 1292.68 478.12" style="enable-background:new 0 0 1292.68 478.12;" xml:space="preserve">
<style type="text/css">
	.st0{fill:#010101;}
	.st1{fill:#EC2227;}
</style>
<g>
	<g>
		<path class="st0" d="M609.63,157.22v-21.5h55.54v50.84c-5.4,5.22-13.22,9.82-23.46,13.8c-10.24,3.97-20.62,5.96-31.12,5.96
			c-13.35,0-24.99-2.8-34.91-8.4c-9.92-5.6-17.38-13.61-22.37-24.03c-4.99-10.42-7.49-21.75-7.49-34c0-13.29,2.79-25.1,8.36-35.43
			c5.57-10.33,13.73-18.25,24.46-23.77c8.18-4.24,18.37-6.36,30.56-6.36c15.84,0,28.22,3.32,37.13,9.97
			c8.91,6.65,14.64,15.83,17.19,27.55l-25.6,4.79c-1.8-6.27-5.18-11.22-10.14-14.84c-4.96-3.63-11.16-5.44-18.59-5.44
			c-11.26,0-20.21,3.57-26.86,10.71c-6.65,7.14-9.97,17.73-9.97,31.78c0,15.15,3.37,26.51,10.1,34.08
			c6.73,7.58,15.55,11.36,26.47,11.36c5.4,0,10.81-1.06,16.24-3.18c5.43-2.12,10.08-4.69,13.97-7.7v-16.19H609.63z"/>
		<path class="st0" d="M689.02,204.15V76.52h54.24c13.64,0,23.55,1.15,29.73,3.44c6.18,2.29,11.13,6.37,14.84,12.23
			c3.71,5.86,5.57,12.57,5.57,20.11c0,9.58-2.82,17.49-8.44,23.72c-5.63,6.24-14.05,10.17-25.25,11.8
			c5.57,3.25,10.17,6.82,13.8,10.71c3.63,3.89,8.52,10.8,14.67,20.72l15.58,24.9h-30.82l-18.63-27.77
			c-6.62-9.92-11.14-16.18-13.58-18.76c-2.44-2.58-5.02-4.35-7.75-5.31c-2.73-0.96-7.05-1.44-12.97-1.44h-5.22v53.28H689.02z
			 M714.79,130.5h19.07c12.36,0,20.08-0.52,23.16-1.57c3.08-1.04,5.48-2.84,7.23-5.4c1.74-2.55,2.61-5.75,2.61-9.58
			c0-4.29-1.15-7.76-3.44-10.4c-2.29-2.64-5.53-4.31-9.71-5.01c-2.09-0.29-8.36-0.44-18.8-0.44h-20.11V130.5z"/>
		<path class="st0" d="M817.52,76.52h25.77v69.12c0,10.97,0.32,18.08,0.96,21.33c1.1,5.22,3.73,9.42,7.88,12.58
			c4.15,3.16,9.82,4.75,17.02,4.75c7.31,0,12.83-1.49,16.54-4.48c3.71-2.99,5.95-6.66,6.7-11.01c0.75-4.35,1.13-11.58,1.13-21.68
			v-70.6h25.77v67.03c0,15.32-0.7,26.15-2.09,32.47c-1.39,6.33-3.96,11.67-7.71,16.02c-3.74,4.35-8.75,7.82-15.02,10.4
			c-6.27,2.58-14.45,3.87-24.55,3.87c-12.19,0-21.43-1.41-27.73-4.22c-6.3-2.82-11.27-6.47-14.93-10.97
			c-3.66-4.5-6.07-9.21-7.23-14.15c-1.68-7.31-2.52-18.11-2.52-32.39V76.52z"/>
		<path class="st0" d="M946.45,204.15V76.52h41.35c15.67,0,25.88,0.64,30.64,1.92c7.31,1.92,13.44,6.08,18.37,12.49
			c4.93,6.41,7.4,14.7,7.4,24.86c0,7.84-1.42,14.42-4.27,19.76c-2.84,5.34-6.46,9.53-10.84,12.58c-4.38,3.05-8.84,5.06-13.36,6.05
			c-6.15,1.22-15.06,1.83-26.73,1.83h-16.8v48.14H946.45z M972.22,98.11v36.22h14.1c10.16,0,16.95-0.67,20.37-2
			c3.42-1.33,6.11-3.42,8.05-6.27c1.94-2.84,2.92-6.15,2.92-9.92c0-4.64-1.36-8.47-4.09-11.49c-2.73-3.02-6.18-4.9-10.36-5.66
			c-3.08-0.58-9.26-0.87-18.54-0.87H972.22z"/>
		<path class="st0" d="M1060.15,141.12c0-13,1.94-23.91,5.83-32.73c2.9-6.5,6.86-12.33,11.88-17.5c5.02-5.16,10.52-9,16.5-11.49
			c7.95-3.36,17.12-5.05,27.51-5.05c18.8,0,33.85,5.83,45.14,17.5c11.29,11.67,16.93,27.89,16.93,48.67c0,20.6-5.6,36.72-16.8,48.36
			c-11.2,11.64-26.18,17.45-44.92,17.45c-18.98,0-34.07-5.79-45.27-17.37C1065.75,177.38,1060.15,161.43,1060.15,141.12z
			 M1086.7,140.25c0,14.45,3.34,25.41,10.01,32.86c6.67,7.46,15.15,11.19,25.42,11.19s18.7-3.7,25.29-11.1
			c6.59-7.4,9.88-18.5,9.88-33.3c0-14.63-3.21-25.54-9.62-32.73c-6.41-7.2-14.93-10.8-25.55-10.8s-19.18,3.64-25.68,10.93
			C1089.95,114.58,1086.7,125.56,1086.7,140.25z"/>
	</g>
	<g>
		<path class="st0" d="M609.63,361.29v-21.5h55.54v50.84c-5.4,5.22-13.22,9.82-23.46,13.8c-10.24,3.97-20.62,5.96-31.12,5.96
			c-13.35,0-24.99-2.8-34.91-8.4s-17.38-13.61-22.37-24.03c-4.99-10.42-7.49-21.75-7.49-34c0-13.29,2.79-25.1,8.36-35.43
			c5.57-10.33,13.73-18.25,24.46-23.77c8.18-4.24,18.37-6.36,30.56-6.36c15.84,0,28.22,3.32,37.13,9.97
			c8.91,6.65,14.64,15.83,17.19,27.55l-25.6,4.79c-1.8-6.27-5.18-11.22-10.14-14.84c-4.96-3.63-11.16-5.44-18.59-5.44
			c-11.26,0-20.21,3.57-26.86,10.71c-6.65,7.14-9.97,17.73-9.97,31.78c0,15.15,3.37,26.51,10.1,34.08
			c6.73,7.58,15.55,11.36,26.47,11.36c5.4,0,10.81-1.06,16.24-3.18c5.43-2.12,10.08-4.69,13.97-7.7v-16.19H609.63z"/>
		<path class="st0" d="M804.03,408.22h-28.03l-11.14-28.99h-51.02l-10.53,28.99h-27.34l49.71-127.63h27.25L804.03,408.22z
			 M756.58,357.72l-17.59-47.36l-17.24,47.36H756.58z"/>
		<path class="st0" d="M818.39,408.22V281.64h25.77v105.08h64.07v21.5H818.39z"/>
		<path class="st0" d="M926.6,408.22V280.59h94.63v21.59h-68.86v28.29h64.07v21.5h-64.07v34.74h71.3v21.5H926.6z"/>
		<path class="st0" d="M1045.61,408.22V280.59h54.24c13.64,0,23.55,1.15,29.73,3.44c6.18,2.29,11.13,6.37,14.84,12.23
			c3.71,5.86,5.57,12.57,5.57,20.11c0,9.58-2.82,17.49-8.44,23.72c-5.63,6.24-14.05,10.17-25.25,11.8
			c5.57,3.25,10.17,6.82,13.8,10.71c3.63,3.89,8.52,10.8,14.67,20.72l15.58,24.9h-30.82l-18.63-27.77
			c-6.62-9.92-11.14-16.18-13.58-18.76c-2.44-2.58-5.02-4.35-7.75-5.31c-2.73-0.96-7.05-1.44-12.97-1.44h-5.22v53.28H1045.61z
			 M1071.38,334.57h19.07c12.36,0,20.08-0.52,23.16-1.57c3.08-1.04,5.48-2.84,7.23-5.4c1.74-2.55,2.61-5.75,2.61-9.58
			c0-4.29-1.15-7.76-3.44-10.4c-2.29-2.64-5.53-4.31-9.71-5.01c-2.09-0.29-8.36-0.44-18.8-0.44h-20.11V334.57z"/>
		<path class="st0" d="M1169.06,345.19c0-13,1.94-23.91,5.83-32.73c2.9-6.5,6.86-12.33,11.88-17.5c5.02-5.16,10.52-9,16.5-11.49
			c7.95-3.36,17.12-5.05,27.51-5.05c18.8,0,33.85,5.83,45.14,17.5c11.29,11.67,16.93,27.89,16.93,48.67c0,20.6-5.6,36.72-16.8,48.36
			c-11.2,11.64-26.18,17.45-44.92,17.45c-18.98,0-34.07-5.79-45.27-17.37C1174.66,381.45,1169.06,365.5,1169.06,345.19z
			 M1195.61,344.32c0,14.45,3.34,25.41,10.01,32.86c6.67,7.46,15.15,11.19,25.42,11.19s18.7-3.7,25.29-11.1
			c6.59-7.4,9.88-18.5,9.88-33.3c0-14.63-3.21-25.54-9.62-32.73c-6.41-7.2-14.93-10.8-25.55-10.8s-19.18,3.64-25.68,10.93
			C1198.86,318.65,1195.61,329.64,1195.61,344.32z"/>
	</g>
	<g>
		<path class="st0" d="M249.79,273.89v-43.12h116.44v101.95c-11.32,10.47-27.71,19.7-49.18,27.67
			c-21.48,7.97-43.22,11.96-65.24,11.96c-27.99,0-52.38-5.61-73.18-16.85c-20.81-11.23-36.44-27.29-46.9-48.18
			c-10.46-20.89-15.69-43.61-15.69-68.17c0-26.65,5.84-50.33,17.52-71.05c11.68-20.71,28.77-36.6,51.28-47.66
			c17.15-8.49,38.51-12.74,64.06-12.74c33.22,0,59.16,6.66,77.84,19.99c18.67,13.33,30.69,31.74,36.04,55.25l-53.66,9.6
			c-3.77-12.57-10.86-22.49-21.26-29.76c-10.4-7.27-23.39-10.91-38.96-10.91c-23.61,0-42.37,7.16-56.3,21.47
			c-13.93,14.32-20.9,35.56-20.9,63.72c0,30.38,7.05,53.16,21.17,68.34c14.11,15.19,32.6,22.78,55.48,22.78
			c11.31,0,22.66-2.12,34.04-6.37c11.38-4.25,21.14-9.4,29.29-15.45v-32.47H249.79z"/>
	</g>
	<g>
		<path class="st0" d="M246.18,23.68c-119.13,0-215.7,96.57-215.7,215.7s96.57,215.7,215.7,215.7s215.7-96.57,215.7-215.7
			S365.3,23.68,246.18,23.68z M246.56,423.02c-101.64,0-184.03-82.39-184.03-184.03S144.93,54.96,246.56,54.96
			s184.03,82.39,184.03,184.03S348.2,423.02,246.56,423.02z"/>
	</g>
	<rect x="230.83" class="st1" width="24.75" height="77.28"/>
	<rect x="230.83" y="400.85" class="st1" width="24.75" height="77.28"/>
	
		<rect x="431.25" y="200.42" transform="matrix(-1.836970e-16 1 -1 -1.836970e-16 682.6892 -204.5663)" class="st1" width="24.75" height="77.28"/>
	
		<rect x="30.41" y="200.42" transform="matrix(-1.836970e-16 1 -1 -1.836970e-16 281.8426 196.2803)" class="st1" width="24.75" height="77.28"/>
</g>
</svg>
